<svg version="1.2" xmlns="http://www.w3.org/2000/svg" viewBox="653.3 125.93 613.22 613.22" width="200" height="200"><style>.s1{fill:#fcfbf9}</style><g id="logo"><path id="4" fill-rule="evenodd" d="M959.91 739.15c-169.56 0-306.61-137.06-306.61-306.61 0-169.56 137.05-306.61 306.61-306.61 169.55 0 306.61 137.05 306.61 306.61 0 169.55-137.06 306.61-306.61 306.61" style="fill:#424a46"/><path id="3" fill-rule="evenodd" class="s1" d="M812.64 251.76c21.99 0 40.25 19.05 40.25 41.04l-.44 279.9c0 21.99-17.82 39.82-39.81 39.82-22 0-39.82-17.83-39.82-39.82V291.58c0-22 17.82-39.82 39.82-39.82"/><path id="2" fill-rule="evenodd" class="s1" d="M1105.18 251.76c21.99 0 40.26 19.05 40.26 41.04l-.44 279.9c0 21.99-17.83 39.82-39.82 39.82s-39.82-17.83-39.82-39.82V291.58c0-22 17.83-39.82 39.82-39.82"/><path id="1" fill-rule="evenodd" class="s1" d="M959.91 375.48c21.99 0 40.26 19.06 40.26 41.05l-.44 108.3c0 21.99-17.83 39.82-39.82 39.82s-39.82-17.83-39.82-39.82V415.3c0-21.99 17.83-39.82 39.82-39.82"/></g></svg>