<svg version="1.2" xmlns="http://www.w3.org/2000/svg" viewBox="0 0 933 301" width="933" height="301">
	<style>
		.s0 { fill: #0066fe } 
		.s1 { fill: #fcfbf9 } 
		.s2 { fill: #e6e6e6 } 
	</style>
	<g id="Папка 1">
		<path id="Фигура 1" fill-rule="evenodd" class="s0" d="m149.71 298.43c-82.24 0-148.71-66.48-148.71-148.72 0-82.24 66.47-148.71 148.71-148.71 82.24 0 148.72 66.47 148.72 148.71 0 82.24-66.48 148.72-148.72 148.72z"/>
		<path id="Заливка сплошным цветом 1" fill-rule="evenodd" class="s1" d="m78.28 62.03c10.67 0 19.53 9.24 19.53 19.91l-0.22 135.75c0 10.67-8.64 19.32-19.31 19.32-10.67 0-19.31-8.65-19.31-19.32v-136.35c0-10.67 8.64-19.31 19.31-19.31z"/>
		<path id="Заливка сплошным цветом 1 copy" fill-rule="evenodd" class="s1" d="m220.17 62.03c10.67 0 19.53 9.24 19.53 19.91l-0.21 135.75c0 10.67-8.65 19.32-19.32 19.32-10.66 0-19.31-8.65-19.31-19.32v-136.35c0-10.67 8.65-19.31 19.31-19.31z"/>
		<path id="Заливка сплошным цветом 1 copy 2" fill-rule="evenodd" class="s1" d="m149.71 122.04c10.67 0 19.53 9.24 19.53 19.91l-0.21 52.53c0 10.66-8.65 19.31-19.32 19.31-10.66 0-19.31-8.65-19.31-19.31v-53.13c0-10.66 8.65-19.31 19.31-19.31z"/>
	</g>
	<path id="wiiiird" fill-rule="evenodd" class="s2" d="m352.52 107.77c-2.36-8.01 3.64-16.03 11.99-16.03h1.12c5.66 0 10.62 3.8 12.08 9.27l24.24 90.87h1.34l24.33-90.88c1.46-5.46 6.41-9.26 12.07-9.26h8.24c5.66 0 10.62 3.8 12.08 9.27l24.15 90.42h1.34l24.07-90.41c1.46-5.47 6.41-9.28 12.08-9.28h1.12c8.35 0 14.35 8.01 12 16.02l-32.78 111.39c-1.56 5.32-6.45 8.98-12 8.97l-8.18-0.01c-5.59-0.01-10.5-3.73-12.02-9.11l-24.86-88.37c-0.16-0.58-0.69-0.99-1.29-0.99-0.61 0-1.14 0.41-1.3 0.99l-24.86 88.36c-1.52 5.39-6.43 9.11-12.03 9.11h-8.17c-5.55 0-10.43-3.65-11.99-8.97zm293.36-2.78c0 6.91-5.59 12.5-12.5 12.5h-71.36c-6.9 0-12.5-5.59-12.5-12.5v-1.54c0-6.91 5.6-12.5 12.5-12.5h71.36c6.91 0 12.5 5.59 12.5 12.5zm-20 55c0 6.9-5.59 12.5-12.5 12.5h-31.36c-6.9 0-12.5-5.6-12.5-12.5v-1.55c0-6.9 5.6-12.5 12.5-12.5h31.36c6.91 0 12.5 5.6 12.5 12.5zm20 56c0 6.91-5.59 12.5-12.5 12.5h-71.36c-6.9 0-12.5-5.59-12.5-12.5v-1.54c0-6.9 5.6-12.5 12.5-12.5h71.36c6.91 0 12.5 5.6 12.5 12.5zm37.53-124.25c6.9 0 12.5 5.59 12.5 12.5v111.36c0 6.9-5.6 12.5-12.5 12.5h-1.54c-6.91 0-12.5-5.6-12.5-12.5v-111.36c0-6.91 5.59-12.5 12.5-12.5zm-0.64-21.04c-9.28 0-16.78-7.08-16.78-15.85 0-8.77 7.5-15.85 16.78-15.85 9.28 0 16.78 7.08 16.78 15.85 0 8.77-7.5 15.85-16.78 15.85zm117.55 36.89c0.02 3.62 0.08 7.46-9.13 10.29 0 0-33.28 9.1-33.28 26.95v70.77c0 6.9-5.6 12.5-12.5 12.5h-1.55c-6.9 0-12.5-5.6-12.5-12.5v-111.36c0-6.91 5.6-12.5 12.5-12.5h0.66c6.9 0 12.5 5.59 12.5 12.5v9.16h1.42c4.97-14.65 32.81-20.96 32.81-20.96 9.4-1.54 9.08 4.97 9.11 10.11zm6.09 52.59c0-44.21 24.24-70.22 57.17-70.22 25.39 0 34.45 15.45 39.24 23.88h1.6v-55.06c0-6.9 5.6-12.5 12.5-12.5h1.55c6.9 0 12.5 5.6 12.5 12.5v156.82c0 6.9-5.6 12.5-12.5 12.5h-0.93c-6.9 0-12.5-5.6-12.5-12.5v-8.72h-2.22c-4.79 8.7-14.56 23.88-39.41 23.88-33.12 0-57-26.45-57-70.58zm93.46-0.26c0-28.5-12.43-47.41-35.6-47.41-23.97 0-36.05 20.33-36.05 47.41 0 27.34 12.34 48.2 36.05 48.2 22.9 0 35.6-19.53 35.6-48.2z"/>
</svg>